HIERARCHY
ROOT Hips
{
	OFFSET 0.000000 0.000000 0.000000
	CHANNELS 6 Xposition Yposition Zposition Zrotation Yrotation Xrotation 
	JOINT LeftUpLeg_virtual
	{
		OFFSET 0.000000 0.000000 0.000000
		CHANNELS 3 Zrotation Yrotation Xrotation
		JOINT LeftUpLeg
		{
			OFFSET 8.479694 -4.795517 -0.379053
			CHANNELS 3 Zrotation Yrotation Xrotation
			JOINT LeftLeg
			{
				OFFSET 0.485052 -32.551468 0.112863
				CHANNELS 3 Zrotation Yrotation Xrotation
				JOINT LeftFoot
				{
					OFFSET 0.438033 -32.635670 -3.012641
					CHANNELS 3 Zrotation Yrotation Xrotation
					JOINT LeftToeBase
					{
						OFFSET 0.970169 -13.225353 11.864223
						CHANNELS 3 Zrotation Yrotation Xrotation
						End Site
						{
							OFFSET 0.000000 0.000000 0.000000
						}
					}
				}
			}
		}
	}
	JOINT RightUpLeg_virtual
	{
		OFFSET 0.000000 0.000000 0.000000
		CHANNELS 3 Zrotation Yrotation Xrotation
		JOINT RightUpLeg
		{
			OFFSET -8.479694 -4.795517 -0.379053
			CHANNELS 3 Zrotation Yrotation Xrotation
			JOINT RightLeg
			{
				OFFSET -0.484100 -32.551483 0.112903
				CHANNELS 3 Zrotation Yrotation Xrotation
				JOINT RightFoot
				{
					OFFSET -0.438985 -32.635651 -3.012681
					CHANNELS 3 Zrotation Yrotation Xrotation
					JOINT RightToeBase
					{
						OFFSET -0.970169 -13.225354 11.864223
						CHANNELS 3 Zrotation Yrotation Xrotation
						End Site
						{
							OFFSET 0.000000 0.000000 0.000000
						}
					}
				}
			}
		}
	}
	JOINT Spine_virtual
	{
		OFFSET 0.000000 0.000000 0.000000
		CHANNELS 3 Zrotation Yrotation Xrotation
		JOINT Spine
		{
			OFFSET 0.000000 7.722015 1.166203
			CHANNELS 3 Zrotation Yrotation Xrotation
			JOINT Spine1
			{
				OFFSET 0.000000 12.024086 0.248766
				CHANNELS 3 Zrotation Yrotation Xrotation
				JOINT Spine2
				{
					OFFSET -0.000000 11.503036 -0.491240
					CHANNELS 3 Zrotation Yrotation Xrotation
					JOINT Neck_virtual
					{
						OFFSET 0.000000 0.000000 0.000000
						CHANNELS 3 Zrotation Yrotation Xrotation
						JOINT Neck
						{
							OFFSET 0.000000 18.430687 -3.123054
							CHANNELS 3 Zrotation Yrotation Xrotation
							JOINT Head
							{
								OFFSET -0.000000 9.051071 1.034021
								CHANNELS 3 Zrotation Yrotation Xrotation
								End Site
								{
									OFFSET 0.000000 0.000000 0.000000
								}
							}
						}
					}
					JOINT LeftShoulder_virtual
					{
						OFFSET 0.000000 0.000000 0.000000
						CHANNELS 3 Zrotation Yrotation Xrotation
						JOINT LeftShoulder
						{
							OFFSET 6.197824 13.665230 -4.064723
							CHANNELS 3 Zrotation Yrotation Xrotation
							JOINT LeftArm
							{
								OFFSET 7.778132 -0.187073 -1.709282
								CHANNELS 3 Zrotation Yrotation Xrotation
								JOINT LeftForeArm
								{
									OFFSET 21.954697 0.000000 -2.041093
									CHANNELS 3 Zrotation Yrotation Xrotation
									JOINT LeftHand
									{
										OFFSET 22.992908 0.000000 -0.870901
										CHANNELS 3 Zrotation Yrotation Xrotation
										End Site
										{
											OFFSET 0.000000 0.000000 0.000000
										}
									}
								}
							}
						}
					}
					JOINT RightShoulder_virtual
					{
						OFFSET 0.000000 0.000000 0.000000
						CHANNELS 3 Zrotation Yrotation Xrotation
						JOINT RightShoulder
						{
							OFFSET -6.197824 13.665230 -4.064723
							CHANNELS 3 Zrotation Yrotation Xrotation
							JOINT RightArm
							{
								OFFSET -7.778132 -0.187073 -1.709282
								CHANNELS 3 Zrotation Yrotation Xrotation
								JOINT RightForeArm
								{
									OFFSET -21.954697 0.000000 -2.041093
									CHANNELS 3 Zrotation Yrotation Xrotation
									JOINT RightHand
									{
										OFFSET -22.992908 0.000000 -0.870901
										CHANNELS 3 Zrotation Yrotation Xrotation
										End Site
										{
											OFFSET 0.000000 0.000000 0.000000
										}
									}
								}
							}
						}
					}
				}
			}
		}
	}
}
MOTION
Frames: 8
Frame Time: 0.033333
1.723981 80.629181 20.833740 -179.965922 6.145901 -179.906281 -5.178512 -0.311874 11.668665 -4.213781 4.068270 -23.139113 8.789840 5.231644 33.347378 1.039970 -10.328543 -13.571643 0.000000 0.000000 0.000000 -1.801353 -0.413668 11.571204 -0.153062 0.423302 -19.379699 -1.438083 2.941131 28.852956 7.278748 4.160876 -14.802454 0.000000 0.000000 0.000000 1.587291 2.616575 0.122036 -4.857185 0.975775 -2.267386 0.752249 -2.953037 3.556045 -0.042930 0.044970 0.068694 0.825015 -1.911180 4.690337 1.311254 1.790946 -5.623847 0.000000 0.000000 0.000000 2.261649 -1.164476 2.112145 -4.480908 5.534263 -6.061078 1.198000 -14.619047 -48.059906 1.166639 -30.215309 -2.203835 0.000000 0.000000 0.000000 -1.673996 -0.025642 1.322508 21.822670 -7.445606 -9.681663 -5.128836 7.997679 -68.064105 1.486436 20.077041 5.946300 0.000000 0.000000 0.000000 
1.692358 80.637672 20.887665 -179.829237 6.073287 -179.784362 -5.258523 -0.351964 11.547765 -4.194100 4.129942 -22.873043 8.684267 5.185981 33.479849 0.765890 -10.663106 -13.421889 0.000000 0.000000 0.000000 -1.875692 -0.499490 11.297988 0.002276 0.271549 -19.301930 -1.377881 2.816915 28.849374 7.133092 3.820018 -14.732392 0.000000 0.000000 0.000000 1.458538 2.456456 -0.064726 -4.753321 0.905846 -2.165346 0.797520 -2.840717 3.566712 0.007687 -0.006279 0.035929 0.719818 -1.999719 4.725681 1.311371 1.664132 -5.668675 0.000000 0.000000 0.000000 2.194136 -1.131610 2.072018 -4.476652 5.417150 -6.061458 1.344756 -14.762627 -48.162509 1.190142 -30.784974 -2.148985 0.000000 0.000000 0.000000 -1.769442 -0.010716 1.439360 21.727718 -7.175728 -9.536658 -5.439297 7.963727 -68.344567 1.495105 20.286147 5.909762 0.000000 0.000000 0.000000 
1.618794 80.653183 20.962965 -179.853088 5.887739 -179.791548 -5.379369 -0.650693 11.390350 -4.161072 4.005299 -22.653414 8.767469 5.275695 33.380699 0.863861 -10.551380 -13.410155 0.000000 0.000000 0.000000 -1.838363 -0.890613 11.082917 -0.090008 0.263399 -19.128110 -1.467490 2.827671 28.842161 7.364105 3.901176 -14.680226 0.000000 0.000000 0.000000 1.325776 2.236429 -0.160783 -4.620521 0.968289 -1.975096 0.744573 -2.787353 3.645123 -0.023954 0.016747 0.065878 0.680580 -1.951687 4.762630 1.360536 1.488425 -5.554490 0.000000 0.000000 0.000000 2.177832 -1.167549 2.041212 -4.460773 5.517282 -6.047087 1.225473 -15.082531 -48.131428 1.488560 -32.048986 -2.219601 0.000000 0.000000 0.000000 -1.783882 0.037869 1.341869 21.714145 -7.255717 -9.616202 -5.788885 7.856184 -68.456145 1.740559 20.384358 6.154893 0.000000 0.000000 0.000000 
1.551699 80.648499 21.041723 -179.924586 5.761400 -179.787409 -5.456508 -0.929359 11.274338 -4.208496 3.943872 -22.541788 8.801090 5.397923 33.256338 0.921017 -10.514654 -13.456349 0.000000 0.000000 0.000000 -1.988352 -1.093450 10.886679 -0.041117 0.368457 -19.066821 -1.452099 3.016807 28.914236 7.498621 3.816847 -14.607326 0.000000 0.000000 0.000000 1.211887 1.986922 -0.256915 -4.437244 1.060835 -1.805200 0.672804 -2.763527 3.718886 -0.033034 0.021755 0.048660 0.648371 -1.847271 4.874203 1.389231 1.293618 -5.569974 0.000000 0.000000 0.000000 2.145507 -1.121351 2.077019 -4.677908 5.812438 -6.279067 0.929690 -15.275307 -48.347924 1.519157 -33.545122 -1.997480 0.000000 0.000000 0.000000 -1.844821 0.062454 1.388914 21.735848 -7.252573 -9.346821 -6.426227 7.549992 -68.705973 1.820440 20.336521 6.088388 0.000000 0.000000 0.000000 
1.497582 80.657318 21.122568 -179.853798 5.695629 -179.786316 -5.427423 -1.063873 11.257217 -4.208228 3.977939 -22.517993 8.853577 5.517856 33.232675 0.895375 -10.526625 -13.412081 0.000000 0.000000 0.000000 -1.873659 -1.284973 10.806066 -0.126177 0.567000 -19.157518 -1.441643 3.106589 29.107807 7.600407 3.674815 -14.548535 0.000000 0.000000 0.000000 1.259758 1.722027 -0.260673 -4.133597 1.187820 -1.733103 0.647627 -2.768897 3.697168 -0.000449 0.006802 0.031259 0.479227 -1.918578 5.061360 1.340900 1.151675 -5.379508 0.000000 0.000000 0.000000 1.967072 -1.106996 2.128731 -4.730201 6.217715 -6.229018 0.343721 -15.441026 -48.453550 2.047934 -34.943869 -2.135389 0.000000 0.000000 0.000000 -1.966032 0.093116 1.544631 21.634004 -7.212049 -9.234591 -6.867216 7.510711 -68.922250 2.110162 20.157072 6.189200 0.000000 0.000000 0.000000 
1.467580 80.665329 21.253145 -179.866885 5.602024 -179.818964 -5.415546 -1.266634 11.278304 -4.260081 3.930187 -22.591127 8.927859 5.665161 33.216637 0.842524 -10.524860 -13.311744 0.000000 0.000000 0.000000 -1.807562 -1.551944 10.795978 -0.234880 0.592718 -19.432312 -1.395211 3.185505 29.429680 7.780239 3.614362 -14.409725 0.000000 0.000000 0.000000 1.288394 1.476653 -0.222548 -3.870050 1.380793 -1.629113 0.579528 -2.745617 3.698944 0.001011 0.028087 0.059266 0.341821 -1.900102 5.099601 1.315825 0.971624 -5.352469 0.000000 0.000000 0.000000 1.824686 -1.180672 2.171361 -4.463443 6.305100 -6.258328 -0.034569 -15.576765 -49.058175 2.439244 -35.571372 -2.129994 0.000000 0.000000 0.000000 -2.103770 0.089562 1.505278 21.521113 -7.236743 -8.787298 -7.173530 7.415113 -69.176935 2.318079 19.969972 6.060971 0.000000 0.000000 0.000000 
1.466931 80.689804 21.473919 -179.842760 5.647281 -179.810440 -5.354607 -1.473695 11.267218 -4.325503 3.960507 -22.746045 9.017755 5.805359 33.167245 0.749918 -10.517838 -13.149515 0.000000 0.000000 0.000000 -1.650373 -1.639038 10.740522 -0.361924 0.347384 -19.823444 -1.355371 3.165613 29.794467 8.020206 3.640757 -14.244504 0.000000 0.000000 0.000000 1.356133 1.183754 -0.143966 -3.628913 1.547013 -1.477653 0.515810 -2.748183 3.674594 0.004025 0.021142 0.032193 0.216358 -1.849232 5.286206 1.257692 0.867856 -5.381941 0.000000 0.000000 0.000000 1.658792 -1.130843 2.258212 -3.755848 6.163478 -6.191634 -0.421821 -15.541044 -49.552777 2.899841 -35.191348 -2.078475 0.000000 0.000000 0.000000 -2.186085 0.106327 1.617068 21.222726 -7.110676 -8.341399 -7.071892 7.410573 -69.437096 2.432283 19.954381 5.732576 0.000000 0.000000 0.000000 
1.505438 80.736221 21.827841 -179.930829 5.752267 -179.857090 -5.328058 -1.774158 11.185685 -4.441672 4.074954 -22.852833 9.091907 5.988796 32.977140 0.610353 -10.505132 -12.920875 0.000000 0.000000 0.000000 -1.518496 -1.911204 10.621505 -0.571081 0.218287 -20.284287 -1.299122 3.234143 30.213957 8.293816 3.719084 -13.931368 0.000000 0.000000 0.000000 1.372188 0.920044 -0.054600 -3.493607 1.661064 -1.237144 0.409037 -2.806906 3.698710 -0.031968 -0.046431 0.066442 0.177838 -1.735117 5.394051 1.197758 0.757287 -5.494440 0.000000 0.000000 0.000000 1.604567 -1.056207 2.233813 -2.720957 5.621702 -6.012629 -1.031532 -15.081416 -48.719647 3.095813 -34.141869 -1.675843 0.000000 0.000000 0.000000 -2.199995 0.154410 1.735639 20.682011 -6.936339 -7.943576 -6.492867 7.513547 -69.630876 2.548515 20.299211 5.298846 0.000000 0.000000 0.000000 
